{
    "accessors" : [
        {
            "bufferView" : 0,
            "componentType" : 5126,
            "count" : 36,
            "max" : [
                9.392020225524902,
                13.371999740600586,
                5.089270114898682
            ],
            "min" : [
                -9.392020225524902,
                -13.371999740600586,
                -5.089270114898682
            ],
            "type" : "VEC3"
        },
        {
            "bufferView" : 1,
            "componentType" : 5126,
            "count" : 36,
            "type" : "VEC3"
        },
        {
            "bufferView" : 2,
            "componentType" : 5126,
            "count" : 36,
            "type" : "VEC4"
        },
        {
            "bufferView" : 3,
            "componentType" : 5126,
            "count" : 36,
            "type" : "VEC2"
        },
        {
            "bufferView" : 4,
            "componentType" : 5121,
            "count" : 36,
            "type" : "SCALAR"
        },
        {
            "bufferView" : 5,
            "componentType" : 5126,
            "count" : 432,
            "max" : [
                5.542300224304199,
                5.542300224304199,
                126.61100006103516
            ],
            "min" : [
                -5.542300224304199,
                -5.542300224304199,
                -126.61100006103516
            ],
            "type" : "VEC3"
        },
        {
            "bufferView" : 6,
            "componentType" : 5126,
            "count" : 432,
            "type" : "VEC3"
        },
        {
            "bufferView" : 7,
            "componentType" : 5126,
            "count" : 432,
            "type" : "VEC4"
        },
        {
            "bufferView" : 8,
            "componentType" : 5126,
            "count" : 432,
            "type" : "VEC2"
        },
        {
            "bufferView" : 9,
            "componentType" : 5123,
            "count" : 432,
            "type" : "SCALAR"
        },
        {
            "bufferView" : 10,
            "componentType" : 5126,
            "count" : 8280,
            "max" : [
                1734.1500244140625,
                983.4949951171875,
                144.5449981689453
            ],
            "min" : [
                -1734.1500244140625,
                -983.4949951171875,
                -144.5449981689453
            ],
            "type" : "VEC3"
        },
        {
            "bufferView" : 11,
            "componentType" : 5126,
            "count" : 8280,
            "type" : "VEC3"
        },
        {
            "bufferView" : 12,
            "componentType" : 5126,
            "count" : 8280,
            "type" : "VEC4"
        },
        {
            "bufferView" : 13,
            "componentType" : 5126,
            "count" : 8280,
            "type" : "VEC2"
        },
        {
            "bufferView" : 14,
            "componentType" : 5123,
            "count" : 8280,
            "type" : "SCALAR"
        },
        {
            "bufferView" : 15,
            "componentType" : 5126,
            "count" : 24,
            "max" : [
                1,
                1,
                1
            ],
            "min" : [
                -1,
                -1,
                -1
            ],
            "type" : "VEC3"
        },
        {
            "bufferView" : 16,
            "componentType" : 5126,
            "count" : 24,
            "type" : "VEC3"
        },
        {
            "bufferView" : 17,
            "componentType" : 5126,
            "count" : 24,
            "type" : "VEC4"
        },
        {
            "bufferView" : 18,
            "componentType" : 5126,
            "count" : 24,
            "type" : "VEC2"
        },
        {
            "bufferView" : 19,
            "componentType" : 5121,
            "count" : 36,
            "type" : "SCALAR"
        }
    ],
    "asset" : {
        "generator" : "Khronos Blender glTF 2.0 I/O",
        "version" : "2.0"
    },
    "bufferViews" : [
        {
            "buffer" : 0,
            "byteLength" : 432,
            "byteOffset" : 0
        },
        {
            "buffer" : 0,
            "byteLength" : 432,
            "byteOffset" : 432
        },
        {
            "buffer" : 0,
            "byteLength" : 576,
            "byteOffset" : 864
        },
        {
            "buffer" : 0,
            "byteLength" : 288,
            "byteOffset" : 1440
        },
        {
            "buffer" : 0,
            "byteLength" : 36,
            "byteOffset" : 1728
        },
        {
            "buffer" : 0,
            "byteLength" : 5184,
            "byteOffset" : 1764
        },
        {
            "buffer" : 0,
            "byteLength" : 5184,
            "byteOffset" : 6948
        },
        {
            "buffer" : 0,
            "byteLength" : 6912,
            "byteOffset" : 12132
        },
        {
            "buffer" : 0,
            "byteLength" : 3456,
            "byteOffset" : 19044
        },
        {
            "buffer" : 0,
            "byteLength" : 864,
            "byteOffset" : 22500
        },
        {
            "buffer" : 0,
            "byteLength" : 99360,
            "byteOffset" : 23364
        },
        {
            "buffer" : 0,
            "byteLength" : 99360,
            "byteOffset" : 122724
        },
        {
            "buffer" : 0,
            "byteLength" : 132480,
            "byteOffset" : 222084
        },
        {
            "buffer" : 0,
            "byteLength" : 66240,
            "byteOffset" : 354564
        },
        {
            "buffer" : 0,
            "byteLength" : 16560,
            "byteOffset" : 420804
        },
        {
            "buffer" : 0,
            "byteLength" : 288,
            "byteOffset" : 437364
        },
        {
            "buffer" : 0,
            "byteLength" : 288,
            "byteOffset" : 437652
        },
        {
            "buffer" : 0,
            "byteLength" : 384,
            "byteOffset" : 437940
        },
        {
            "buffer" : 0,
            "byteLength" : 192,
            "byteOffset" : 438324
        },
        {
            "buffer" : 0,
            "byteLength" : 36,
            "byteOffset" : 438516
        }
    ],
    "buffers" : [
        {
            "byteLength" : 438552,
            "uri" : "fence.bin"
        }
    ],
    "cameras" : [
        {
            "name" : "Camera",
            "perspective" : {
                "yfov" : 0.39959648408210363,
                "zfar" : 100,
                "znear" : 0.10000000149011612
            },
            "type" : "perspective"
        }
    ],
    "extensions" : {},
    "materials" : [
        {
            "pbrMetallicRoughness" : {
                "baseColorFactor" : [
                    0.46000000834465027,
                    0.46000000834465027,
                    0.46000000834465027,
                    1
                ],
                "metallicFactor" : 0.5,
                "roughnessFactor" : 0.5
            }
        },
        {
            "pbrMetallicRoughness" : {
                "baseColorFactor" : [
                    0.800000011920929,
                    0.800000011920929,
                    0.800000011920929,
                    1
                ],
                "metallicFactor" : 0.5,
                "roughnessFactor" : 0.5
            }
        },
        {
            "pbrMetallicRoughness" : {
                "baseColorFactor" : [
                    0.800000011920929,
                    0.800000011920929,
                    0.800000011920929,
                    1
                ],
                "metallicFactor" : 0,
                "roughnessFactor" : 0.5
            }
        }
    ],
    "meshes" : [
        {
            "name" : "Mesh_1",
            "primitives" : [
                {
                    "attributes" : {
                        "NORMAL" : 1,
                        "POSITION" : 0,
                        "TANGENT" : 2,
                        "TEXCOORD_0" : 3
                    },
                    "indices" : 4,
                    "material" : 0
                }
            ]
        },
        {
            "name" : "Mesh_0",
            "primitives" : [
                {
                    "attributes" : {
                        "NORMAL" : 6,
                        "POSITION" : 5,
                        "TANGENT" : 7,
                        "TEXCOORD_0" : 8
                    },
                    "indices" : 9,
                    "material" : 0
                }
            ]
        },
        {
            "name" : "Mesh_2",
            "primitives" : [
                {
                    "attributes" : {
                        "NORMAL" : 11,
                        "POSITION" : 10,
                        "TANGENT" : 12,
                        "TEXCOORD_0" : 13
                    },
                    "indices" : 14,
                    "material" : 1
                }
            ]
        },
        {
            "name" : "Cube",
            "primitives" : [
                {
                    "attributes" : {
                        "NORMAL" : 16,
                        "POSITION" : 15,
                        "TANGENT" : 17,
                        "TEXCOORD_0" : 18
                    },
                    "indices" : 19,
                    "material" : 2
                }
            ]
        }
    ],
    "nodes" : [
        {
            "mesh" : 0,
            "name" : "Cube.1",
            "rotation" : [
                0,
                0,
                -0.9620491862297058,
                0.27287617325782776
            ],
            "translation" : [
                -2215.639892578125,
                -4092.860107421875,
                -237.40599060058594
            ]
        },
        {
            "mesh" : 1,
            "name" : "Cylinder",
            "rotation" : [
                0,
                0,
                -0.9620491862297058,
                0.27287617325782776
            ],
            "translation" : [
                -2076.22998046875,
                -4316.330078125,
                -236.7559814453125
            ]
        },
        {
            "mesh" : 2,
            "name" : "Null_Instance.17",
            "translation" : [
                -1212.6400146484375,
                -5056.419921875,
                -253.02796936035156
            ]
        },
        {
            "children" : [
                0,
                1,
                2
            ],
            "name" : "null",
            "rotation" : [
                0.7071068286895752,
                0,
                0,
                0.7071067094802856
            ],
            "scale" : [
                0.009999999776482582,
                0.009999999776482582,
                0.009999999776482582
            ]
        },
        {
            "mesh" : 3,
            "name" : "Cube"
        },
        {
            "name" : "Light",
            "rotation" : [
                0.16907575726509094,
                0.7558802962303162,
                -0.27217137813568115,
                0.570947527885437
            ],
            "scale" : [
                1,
                1,
                0.9999999403953552
            ],
            "translation" : [
                4.076245307922363,
                5.903861999511719,
                -1.0054539442062378
            ]
        },
        {
            "camera" : 0,
            "name" : "Camera",
            "rotation" : [
                0.483536034822464,
                0.33687159419059753,
                -0.20870360732078552,
                0.7804827094078064
            ],
            "translation" : [
                7.358891487121582,
                4.958309173583984,
                6.925790786743164
            ]
        }
    ],
    "scene" : 0,
    "scenes" : [
        {
            "name" : "Scene",
            "nodes" : [
                3,
                4,
                5,
                6
            ]
        }
    ]
}
