{
    "asset": {
        "generator": "COLLADA2GLTF",
        "version": "2.0"
    },
    "scenes": [
        {
            "nodes": [
                0
            ]
        }
    ],
    "scene": 0,
    "nodes": [
        {
            "children": [
                1
            ],
            "name": "Y_UP"
        },
        {
            "children": [
                7,
                6,
                5,
                4,
                3,
                2
            ],
            "matrix": [
                1.0,
                0.0,
                0.0,
                0.0,
                0.0,
                1.0,
                0.0,
                0.0,
                0.0,
                0.0,
                1.0,
                0.0,
                -29.51219940185547,
                5.504370212554932,
                -7.717040061950684,
                1.0
            ],
            "name": "Lamp"
        },
        {
            "mesh": 0,
            "matrix": [
                1.0,
                0.0,
                0.0,
                0.0,
                0.0,
                1.0,
                0.0,
                0.0,
                0.0,
                0.0,
                1.0,
                0.0,
                -0.001452539931051433,
                -2.0510001182556154,
                -0.0032079999800771477,
                1.0
            ],
            "name": "Cylinder.1"
        },
        {
            "mesh": 1,
            "matrix": [
                1.0,
                0.0,
                0.0,
                0.0,
                0.0,
                1.0,
                0.0,
                0.0,
                0.0,
                0.0,
                1.0,
                0.0,
                -0.001452539931051433,
                -3.9888501167297369,
                0.01683499850332737,
                1.0
            ],
            "name": "Cylinder.2"
        },
        {
            "mesh": 2,
            "matrix": [
                1.0,
                0.0,
                0.0,
                0.0,
                0.0,
                1.0,
                0.0,
                0.0,
                0.0,
                0.0,
                1.0,
                0.0,
                -0.001452539931051433,
                0.7036600112915039,
                -0.003104839939624071,
                1.0
            ],
            "name": "Cylinder.3"
        },
        {
            "mesh": 3,
            "matrix": [
                1.0,
                0.0,
                0.0,
                0.0,
                0.0,
                1.0,
                0.0,
                0.0,
                0.0,
                0.0,
                1.0,
                0.0,
                -0.001452539931051433,
                1.0846400260925294,
                0.0008831259910948575,
                1.0
            ],
            "name": "Cylinder.4"
        },
        {
            "mesh": 4,
            "matrix": [
                1.0,
                0.0,
                0.0,
                0.0,
                0.0,
                1.0,
                0.0,
                0.0,
                0.0,
                0.0,
                1.0,
                0.0,
                -0.001452539931051433,
                1.4653600454330445,
                -0.003104839939624071,
                1.0
            ],
            "name": "Cylinder.5"
        },
        {
            "mesh": 5,
            "matrix": [
                1.0,
                0.0,
                0.0,
                0.0,
                0.0,
                1.0,
                0.0,
                0.0,
                0.0,
                0.0,
                1.0,
                0.0,
                -0.0010465099476277829,
                1.725199818611145,
                -0.001884029945358634,
                1.0
            ],
            "name": "Cone"
        }
    ],
    "meshes": [
        {
            "primitives": [
                {
                    "attributes": {
                        "NORMAL": 1,
                        "POSITION": 2
                    },
                    "indices": 0,
                    "mode": 4,
                    "material": 0
                }
            ],
            "name": "ID53"
        },
        {
            "primitives": [
                {
                    "attributes": {
                        "NORMAL": 4,
                        "POSITION": 5
                    },
                    "indices": 3,
                    "mode": 4,
                    "material": 1
                }
            ],
            "name": "ID44"
        },
        {
            "primitives": [
                {
                    "attributes": {
                        "NORMAL": 7,
                        "POSITION": 8
                    },
                    "indices": 6,
                    "mode": 4,
                    "material": 2
                }
            ],
            "name": "ID35"
        },
        {
            "primitives": [
                {
                    "attributes": {
                        "NORMAL": 10,
                        "POSITION": 11
                    },
                    "indices": 9,
                    "mode": 4,
                    "material": 3
                }
            ],
            "name": "ID26"
        },
        {
            "primitives": [
                {
                    "attributes": {
                        "NORMAL": 13,
                        "POSITION": 14
                    },
                    "indices": 12,
                    "mode": 4,
                    "material": 4
                }
            ],
            "name": "ID17"
        },
        {
            "primitives": [
                {
                    "attributes": {
                        "NORMAL": 16,
                        "POSITION": 17
                    },
                    "indices": 15,
                    "mode": 4,
                    "material": 5
                }
            ],
            "name": "ID8"
        }
    ],
    "accessors": [
        {
            "bufferView": 0,
            "byteOffset": 0,
            "componentType": 5123,
            "count": 540,
            "max": [
                147
            ],
            "min": [
                0
            ],
            "type": "SCALAR"
        },
        {
            "bufferView": 1,
            "byteOffset": 0,
            "componentType": 5126,
            "count": 148,
            "max": [
                1.0,
                1.0,
                1.0
            ],
            "min": [
                -1.0,
                -1.0,
                -1.0
            ],
            "type": "VEC3"
        },
        {
            "bufferView": 1,
            "byteOffset": 1776,
            "componentType": 5126,
            "count": 148,
            "max": [
                0.08480079472064972,
                2.644590139389038,
                0.08480079472064972
            ],
            "min": [
                -0.08480079472064972,
                -2.644590139389038,
                -0.08480079472064972
            ],
            "type": "VEC3"
        },
        {
            "bufferView": 0,
            "byteOffset": 1080,
            "componentType": 5123,
            "count": 540,
            "max": [
                147
            ],
            "min": [
                0
            ],
            "type": "SCALAR"
        },
        {
            "bufferView": 1,
            "byteOffset": 3552,
            "componentType": 5126,
            "count": 148,
            "max": [
                1.0,
                1.0,
                1.0
            ],
            "min": [
                -1.0,
                -1.0,
                -1.0
            ],
            "type": "VEC3"
        },
        {
            "bufferView": 1,
            "byteOffset": 5328,
            "componentType": 5126,
            "count": 148,
            "max": [
                0.2685159742832184,
                0.6028319597244263,
                0.2685159742832184
            ],
            "min": [
                -0.2685159742832184,
                -0.6028319597244263,
                -0.2685159742832184
            ],
            "type": "VEC3"
        },
        {
            "bufferView": 0,
            "byteOffset": 2160,
            "componentType": 5123,
            "count": 540,
            "max": [
                147
            ],
            "min": [
                0
            ],
            "type": "SCALAR"
        },
        {
            "bufferView": 1,
            "byteOffset": 7104,
            "componentType": 5126,
            "count": 148,
            "max": [
                1.0,
                1.0,
                1.0
            ],
            "min": [
                -1.0,
                -1.0,
                -1.0
            ],
            "type": "VEC3"
        },
        {
            "bufferView": 1,
            "byteOffset": 8880,
            "componentType": 5126,
            "count": 148,
            "max": [
                0.3192449808120728,
                0.10809599608182909,
                0.3192449808120728
            ],
            "min": [
                -0.3192449808120728,
                -0.10809599608182909,
                -0.3192449808120728
            ],
            "type": "VEC3"
        },
        {
            "bufferView": 0,
            "byteOffset": 3240,
            "componentType": 5123,
            "count": 540,
            "max": [
                147
            ],
            "min": [
                0
            ],
            "type": "SCALAR"
        },
        {
            "bufferView": 1,
            "byteOffset": 10656,
            "componentType": 5126,
            "count": 148,
            "max": [
                1.0,
                1.0,
                1.0
            ],
            "min": [
                -1.0,
                -1.0,
                -1.0
            ],
            "type": "VEC3"
        },
        {
            "bufferView": 1,
            "byteOffset": 12432,
            "componentType": 5126,
            "count": 148,
            "max": [
                0.22828000783920289,
                0.26521098613739016,
                0.22828000783920289
            ],
            "min": [
                -0.22828000783920289,
                -0.26521098613739016,
                -0.22828000783920289
            ],
            "type": "VEC3"
        },
        {
            "bufferView": 0,
            "byteOffset": 4320,
            "componentType": 5123,
            "count": 540,
            "max": [
                147
            ],
            "min": [
                0
            ],
            "type": "SCALAR"
        },
        {
            "bufferView": 1,
            "byteOffset": 14208,
            "componentType": 5126,
            "count": 148,
            "max": [
                1.0,
                1.0,
                1.0
            ],
            "min": [
                -1.0,
                -1.0,
                -1.0
            ],
            "type": "VEC3"
        },
        {
            "bufferView": 1,
            "byteOffset": 15984,
            "componentType": 5126,
            "count": 148,
            "max": [
                0.3192449808120728,
                0.10809599608182909,
                0.3192449808120728
            ],
            "min": [
                -0.3192449808120728,
                -0.10809599608182909,
                -0.3192449808120728
            ],
            "type": "VEC3"
        },
        {
            "bufferView": 0,
            "byteOffset": 5400,
            "componentType": 5123,
            "count": 3348,
            "max": [
                441
            ],
            "min": [
                0
            ],
            "type": "SCALAR"
        },
        {
            "bufferView": 1,
            "byteOffset": 17760,
            "componentType": 5126,
            "count": 442,
            "max": [
                0.6707519888877869,
                0.7416819930076599,
                0.6707519888877869
            ],
            "min": [
                -0.6707519888877869,
                -1.0,
                -0.6707519888877869
            ],
            "type": "VEC3"
        },
        {
            "bufferView": 1,
            "byteOffset": 23064,
            "componentType": 5126,
            "count": 442,
            "max": [
                0.4007589519023895,
                0.18121598660945893,
                0.4007589519023895
            ],
            "min": [
                -0.4007589519023895,
                -0.18121598660945893,
                -0.4007589519023895
            ],
            "type": "VEC3"
        }
    ],
    "materials": [
        {
            "pbrMetallicRoughness": {
                "baseColorFactor": [
                    0.20999999344348908,
                    0.20999999344348908,
                    0.20999999344348908,
                    1.0
                ],
                "metallicFactor": 0.0
            },
            "name": "ID2"
        },
        {
            "pbrMetallicRoughness": {
                "baseColorFactor": [
                    0.20999999344348908,
                    0.20999999344348908,
                    0.20999999344348908,
                    1.0
                ],
                "metallicFactor": 0.0
            },
            "name": "ID2"
        },
        {
            "pbrMetallicRoughness": {
                "baseColorFactor": [
                    0.20999999344348908,
                    0.20999999344348908,
                    0.20999999344348908,
                    1.0
                ],
                "metallicFactor": 0.0
            },
            "name": "ID2"
        },
        {
            "pbrMetallicRoughness": {
                "baseColorFactor": [
                    0.800000011920929,
                    0.800000011920929,
                    0.800000011920929,
                    1.0
                ],
                "metallicFactor": 0.0
            },
            "name": "ID4"
        },
        {
            "pbrMetallicRoughness": {
                "baseColorFactor": [
                    0.20999999344348908,
                    0.20999999344348908,
                    0.20999999344348908,
                    1.0
                ],
                "metallicFactor": 0.0
            },
            "name": "ID2"
        },
        {
            "pbrMetallicRoughness": {
                "baseColorFactor": [
                    0.20999999344348908,
                    0.20999999344348908,
                    0.20999999344348908,
                    1.0
                ],
                "metallicFactor": 0.0
            },
            "name": "ID2"
        }
    ],
    "bufferViews": [
        {
            "buffer": 0,
            "byteOffset": 28368,
            "byteLength": 12096,
            "target": 34963
        },
        {
            "buffer": 0,
            "byteOffset": 0,
            "byteLength": 28368,
            "byteStride": 12,
            "target": 34962
        }
    ],
    "buffers": [
        {
            "byteLength": 40464,
            "uri": "data:application/octet-stream;base64,"
        }
    ]
}
